<?xml version="1.0" standalone="no"?>
<!DOCTYPE svg PUBLIC "-//W3C//DTD SVG 20010904//EN"
 "http://www.w3.org/TR/2001/REC-SVG-20010904/DTD/svg10.dtd">
<svg version="1.0" xmlns="http://www.w3.org/2000/svg"
 width="1031.000000pt" height="532.000000pt" viewBox="0 0 1031.000000 532.000000"
 preserveAspectRatio="xMidYMid meet">

<g transform="translate(0.000000,532.000000) scale(0.100000,-0.100000)"
fill="#000000" stroke="none">
<path d="M87 5217 c-24 -19 -30 -34 -39 -97 -14 -99 -4 -310 17 -380 42 -136
141 -270 238 -318 61 -30 166 -31 222 -1 70 38 102 83 126 177 11 46 11 61 -6
125 -42 168 -136 296 -291 399 -70 47 -208 118 -228 118 -6 0 -24 -10 -39 -23z
m270 -290 c63 -58 94 -103 123 -179 52 -136 -4 -234 -106 -189 -73 33 -141
134 -169 253 -15 62 -21 209 -9 221 9 9 99 -50 161 -106z"/>
<path d="M1211 4839 c-206 -27 -383 -134 -462 -282 -30 -56 -33 -177 -4 -222
68 -107 158 -147 286 -126 199 33 392 232 490 505 l24 65 -21 28 c-12 15 -32
31 -45 34 -33 9 -190 8 -268 -2z m129 -157 c0 -23 -74 -144 -122 -198 -108
-122 -297 -168 -333 -79 -42 99 104 234 300 278 35 8 155 7 155 -1z"/>
<path d="M2269 4456 c-3 -3 -36 -10 -74 -16 -88 -14 -227 -61 -327 -112 -324
-164 -610 -518 -683 -844 -8 -38 -18 -79 -20 -91 -3 -13 -9 -23 -14 -23 -16 0
-176 163 -224 229 -61 82 -128 207 -162 301 -37 103 -55 203 -63 350 -4 69
-11 130 -14 136 -16 24 -66 37 -97 25 -55 -23 -61 -71 -36 -261 43 -325 154
-556 376 -783 58 -60 103 -110 100 -111 -4 -2 -18 -6 -33 -10 -48 -11 -142
-73 -190 -124 -63 -67 -107 -157 -117 -240 -9 -69 2 -196 18 -216 4 -6 12 -22
16 -36 12 -38 84 -129 133 -165 24 -19 78 -50 120 -71 252 -122 358 -313 369
-667 l6 -158 27 -19 c38 -27 53 -25 90 12 l32 31 -5 151 c-3 83 -10 177 -16
210 -42 216 -165 412 -319 510 -22 13 -76 44 -122 68 -55 28 -99 61 -130 95
-83 91 -99 204 -44 319 39 82 150 160 243 171 l48 5 13 -53 c77 -329 307 -543
626 -580 336 -39 686 96 958 370 255 256 387 569 373 881 -6 131 -23 204 -72
308 -100 212 -281 348 -531 396 -74 15 -244 22 -255 12z m281 -172 c69 -20
113 -39 172 -76 52 -33 52 -31 3 -112 -139 -226 -346 -417 -590 -546 -246
-130 -407 -251 -530 -399 -27 -33 -52 -60 -56 -60 -3 -1 -30 23 -60 52 -30 28
-83 66 -118 82 l-63 30 6 79 c5 77 9 93 49 211 64 191 215 393 400 536 86 67
271 169 306 169 9 0 21 4 27 9 9 9 83 26 179 41 67 11 207 2 275 -16z m384
-337 c48 -128 58 -264 30 -403 -31 -154 -74 -255 -168 -397 -235 -359 -682
-576 -1027 -501 -82 18 -205 72 -233 102 -16 19 -16 22 -2 49 50 89 148 217
235 306 123 127 233 206 446 317 218 114 410 277 547 464 21 28 41 56 46 61 4
6 19 28 32 50 13 22 28 43 34 47 12 8 35 -29 60 -95z m-1530 -942 c14 -21 26
-51 26 -66 0 -28 -22 -54 -34 -41 -18 17 -76 169 -68 176 8 9 50 -29 76 -69z"/>
<path d="M8413 2724 c-17 -7 -35 -24 -38 -36 -13 -43 -55 -77 -109 -87 -28 -6
-161 -13 -296 -15 -266 -4 -325 -14 -410 -63 -102 -60 -170 -148 -204 -260
-18 -62 -14 -64 61 -29 43 20 51 28 46 45 -18 70 33 166 104 196 36 15 240 32
266 22 12 -4 6 -44 -34 -249 -88 -444 -99 -468 -212 -468 -37 0 -48 -6 -86
-44 l-42 -43 93 -7 c51 -3 138 -7 193 -7 l99 -1 32 38 c18 21 30 42 28 46 -3
4 -53 8 -111 8 l-106 0 39 28 c63 46 110 105 133 167 12 32 43 164 69 294 l48
236 90 6 c49 3 115 14 146 23 101 30 203 109 244 187 17 33 9 36 -43 13z"/>
<path d="M3801 2600 c-66 -42 -109 -91 -111 -123 0 -4 35 10 78 33 67 35 81
46 100 85 34 70 33 71 -67 5z"/>
<path d="M6370 2601 c-155 -48 -231 -184 -186 -334 l14 -47 -69 -36 c-142 -75
-209 -164 -209 -278 0 -76 24 -129 78 -178 91 -82 238 -77 372 12 l45 30 40
-40 c48 -46 80 -60 143 -60 77 1 202 69 202 111 0 18 -3 18 -40 -7 -25 -17
-59 -29 -90 -32 -48 -4 -50 -3 -102 46 l-53 51 31 33 c42 45 90 118 114 172
16 39 24 46 57 52 57 10 109 43 138 86 23 35 23 51 -1 29 -16 -16 -124 -31
-223 -31 l-96 0 -27 -43 -27 -42 59 -3 c44 -2 60 -7 60 -17 0 -32 -43 -125
-74 -161 l-33 -39 -35 55 c-43 67 -78 135 -111 217 l-25 62 21 7 c53 16 145
68 179 102 68 65 86 163 43 228 -32 49 -126 76 -195 55z m90 -49 c34 -28 38
-104 10 -170 -22 -51 -55 -84 -119 -116 -40 -21 -45 -16 -61 57 -21 101 -1
194 51 231 31 21 91 20 119 -2z m-235 -409 c9 -39 101 -229 136 -285 17 -26
28 -51 25 -56 -10 -17 -91 -50 -137 -57 -32 -5 -57 -2 -87 10 -166 67 -158
321 13 408 35 18 41 16 50 -20z"/>
<path d="M3062 2579 c-184 -17 -301 -76 -362 -183 -28 -48 -58 -152 -47 -162
3 -3 30 7 61 23 52 25 56 30 56 63 1 74 65 161 143 194 52 21 127 30 127 14 0
-7 -16 -95 -36 -195 l-37 -183 -32 0 c-28 0 -65 -24 -65 -43 0 -4 20 -7 44 -7
l44 0 -33 -160 c-45 -215 -80 -322 -127 -381 -28 -34 -82 -59 -132 -59 -56 0
-131 37 -141 70 -9 28 -15 26 -64 -24 l-43 -44 43 -29 c39 -26 50 -28 133 -28
83 0 98 3 158 33 163 80 268 263 319 555 l11 69 109 -3 c107 -4 109 -3 136 24
l28 27 -128 0 c-116 0 -127 2 -127 18 0 10 16 97 35 192 19 95 35 175 35 178
0 3 42 3 94 0 63 -3 106 -11 132 -24 35 -17 39 -23 42 -62 3 -34 7 -43 20 -40
11 2 26 30 44 83 14 44 27 84 27 88 1 9 -352 6 -467 -4z"/>
<path d="M3655 2311 c-106 -35 -141 -51 -143 -65 -3 -14 0 -17 11 -13 40 15
88 19 102 7 23 -19 19 -75 -21 -277 -38 -194 -39 -237 -4 -268 26 -24 85 -23
143 3 57 25 157 117 157 145 0 16 -9 12 -48 -26 -77 -71 -127 -92 -152 -62
-11 13 -8 41 14 158 26 138 81 394 92 430 7 22 12 23 -151 -32z"/>
<path d="M4054 2346 c-36 -16 -97 -68 -123 -105 -11 -15 -22 -45 -26 -66 l-7
-40 29 40 c157 212 278 53 286 -374 2 -109 4 -121 20 -121 34 0 54 19 211 203
256 300 287 349 266 428 -6 21 -15 41 -20 44 -5 3 -36 3 -69 -1 l-59 -6 20
-45 c25 -56 19 -93 -27 -186 -30 -60 -192 -287 -214 -302 -5 -3 -12 48 -16
113 -17 284 -77 420 -192 429 -28 2 -61 -3 -79 -11z"/>
<path d="M5137 2340 c-116 -45 -234 -176 -279 -310 -26 -78 -29 -187 -5 -241
63 -142 245 -145 460 -7 29 18 47 37 47 49 0 22 -13 25 -29 5 -17 -20 -142
-75 -195 -85 -109 -20 -176 43 -176 167 0 30 2 32 38 32 95 0 230 58 298 128
50 52 66 95 62 166 -4 51 -9 63 -36 87 -27 24 -41 29 -85 29 -28 -1 -74 -9
-100 -20z m87 -53 c30 -22 33 -106 7 -161 -34 -69 -152 -136 -242 -136 l-27 0
12 53 c40 171 173 300 250 244z"/>
<path d="M8309 2331 c-58 -36 -117 -108 -125 -152 l-6 -34 48 54 c74 83 127
96 178 43 43 -45 57 -125 63 -354 6 -205 6 -208 28 -208 28 0 44 14 93 80 53
72 94 142 163 274 31 60 59 104 62 99 11 -18 27 -215 27 -334 0 -117 0 -119
23 -119 12 0 27 4 32 8 14 9 209 277 273 373 89 134 116 199 113 267 -1 21 -5
22 -72 22 -64 0 -70 -2 -64 -17 31 -74 23 -126 -35 -251 -41 -87 -138 -242
-152 -242 -4 0 -8 26 -8 58 0 140 -58 438 -87 449 -29 11 -46 -13 -64 -88 -29
-122 -91 -256 -178 -388 l-36 -54 -6 144 c-9 206 -39 310 -105 369 -47 41
-103 41 -165 1z"/>
<path d="M9720 2343 c-60 -21 -114 -59 -175 -124 -93 -99 -135 -196 -137 -314
-1 -84 23 -147 71 -188 42 -35 67 -41 149 -35 200 15 383 231 385 455 1 73 -2
86 -29 130 -52 85 -154 115 -264 76z m109 -59 c38 -32 51 -77 51 -179 0 -238
-140 -425 -273 -364 -49 22 -62 63 -62 194 1 100 5 129 24 177 67 169 177 242
260 172z"/>
<path d="M0 20 c0 -15 7 -20 26 -20 27 0 25 14 -7 30 -16 9 -19 7 -19 -10z"/>
</g>
</svg>
