<?xml version="1.0" standalone="no"?>
<!DOCTYPE svg PUBLIC "-//W3C//DTD SVG 20010904//EN"
 "http://www.w3.org/TR/2001/REC-SVG-20010904/DTD/svg10.dtd">
<svg version="1.0" xmlns="http://www.w3.org/2000/svg"
 width="983.000000pt" height="428.000000pt" viewBox="0 0 983.000000 428.000000"
 preserveAspectRatio="xMidYMid meet">

<g transform="translate(0.000000,428.000000) scale(0.100000,-0.100000)"
fill="#000000" stroke="none">
<path d="M1134 3715 c-26 -26 -26 -28 -22 -148 3 -99 8 -131 26 -170 63 -139
184 -200 271 -137 63 44 77 126 40 226 -28 74 -119 165 -217 217 l-72 38 -26
-26z m166 -165 c67 -58 80 -80 80 -147 0 -59 -17 -83 -59 -83 -50 0 -101 80
-121 189 -21 115 3 125 100 41z"/>
<path d="M1725 3481 c-177 -60 -264 -210 -179 -310 64 -76 193 -62 300 32 47
40 107 132 134 204 19 52 20 57 4 74 -15 16 -32 19 -113 18 -63 0 -113 -6
-146 -18z m159 -85 c-15 -46 -119 -167 -166 -192 -38 -20 -85 -17 -108 6 -56
56 16 168 120 186 19 3 53 11 75 18 55 17 88 10 79 -18z"/>
<path d="M2390 3264 c-144 -28 -306 -119 -416 -236 -90 -94 -177 -257 -191
-355 -3 -24 -11 -43 -17 -43 -7 0 -32 21 -57 48 -133 138 -194 273 -206 450
-6 96 -17 122 -52 122 -37 0 -44 -25 -38 -128 12 -193 89 -365 224 -500 29
-29 53 -57 53 -61 0 -4 -16 -13 -36 -20 -48 -17 -99 -64 -132 -120 -23 -40
-27 -57 -27 -126 0 -74 3 -85 32 -131 36 -55 64 -79 142 -118 145 -74 210
-196 214 -400 2 -78 5 -90 23 -103 19 -12 24 -11 45 6 22 18 24 26 23 108 -3
222 -93 382 -262 467 -78 39 -117 81 -127 139 -15 81 25 156 107 198 60 31 79
23 93 -36 29 -124 112 -226 234 -283 65 -32 85 -36 175 -40 114 -5 212 16 309
64 206 105 368 299 422 509 23 92 20 226 -9 307 -43 121 -109 192 -233 250
-58 28 -78 32 -167 34 -56 1 -112 0 -126 -2z m287 -107 c38 -20 50 -54 34 -97
-20 -59 -110 -167 -174 -209 -34 -23 -82 -57 -107 -76 -25 -19 -85 -54 -135
-79 -94 -47 -202 -139 -237 -205 -14 -26 -23 -31 -52 -31 -29 0 -45 10 -91 53
-61 59 -65 74 -41 162 49 185 196 357 396 466 76 41 340 51 407 16z m162 -158
c19 -7 40 -80 41 -139 0 -62 -23 -211 -38 -252 -17 -43 -100 -147 -181 -228
-62 -61 -95 -84 -176 -124 -133 -64 -139 -66 -291 -67 -149 -1 -183 9 -204 61
-10 24 -10 37 -1 56 13 28 171 214 182 214 4 0 29 17 56 39 56 44 202 136 278
174 73 37 189 147 209 199 10 24 32 57 49 73 30 28 33 29 48 14 9 -9 22 -18
28 -20z m-926 -577 c10 -9 17 -29 17 -49 0 -47 -26 -43 -41 7 -7 22 -16 40
-20 40 -5 0 -6 7 -3 15 6 15 17 13 47 -13z"/>
<path d="M7134 2229 c-11 -6 -25 -23 -31 -39 -22 -59 -43 -64 -307 -71 -279
-7 -317 -16 -407 -97 -73 -65 -144 -218 -91 -197 9 4 29 12 45 17 23 9 27 15
27 51 0 56 27 107 70 131 47 27 240 38 240 13 0 -42 -94 -468 -111 -503 -20
-43 -52 -64 -98 -64 -18 0 -38 -12 -60 -34 l-33 -34 147 -7 147 -8 36 37 37
36 -81 0 c-44 0 -83 3 -87 6 -3 3 18 30 48 58 63 63 76 97 126 354 l33 172 54
0 c68 0 165 24 218 55 42 25 124 107 124 125 0 12 -18 12 -46 -1z"/>
<path d="M3406 2130 c-52 -34 -85 -69 -86 -93 0 -4 27 6 60 23 46 23 64 39 80
70 11 22 17 40 13 39 -5 0 -35 -18 -67 -39z"/>
<path d="M5455 2121 c-54 -25 -92 -62 -115 -113 -23 -52 -25 -80 -6 -142 l14
-47 -58 -29 c-77 -39 -129 -85 -151 -135 -40 -87 -12 -193 64 -243 34 -23 51
-27 111 -27 59 0 82 5 139 32 l69 33 38 -32 c59 -46 119 -49 204 -10 40 19 66
37 66 46 0 20 -3 20 -50 -4 -58 -30 -84 -26 -135 21 l-45 41 45 51 c25 29 55
75 67 104 16 40 27 53 42 53 34 1 103 37 116 60 15 29 10 32 -31 20 -18 -6
-75 -10 -126 -10 -90 0 -92 -1 -112 -29 -12 -16 -21 -32 -21 -35 0 -3 20 -6
45 -6 31 0 45 -4 45 -13 0 -30 -33 -106 -59 -137 l-28 -34 -28 44 c-33 53
-105 205 -105 223 0 7 21 20 48 29 59 21 130 81 148 125 53 126 -61 224 -191
164z m105 -31 c26 -26 27 -98 0 -149 -20 -41 -108 -107 -122 -93 -15 15 -31
128 -24 167 15 79 99 122 146 75z m-176 -375 c16 -42 48 -110 72 -152 24 -42
44 -80 44 -83 0 -13 -97 -50 -130 -50 -161 0 -207 230 -67 330 23 16 44 29 47
30 3 0 18 -34 34 -75z"/>
<path d="M2750 2109 c-67 -12 -156 -51 -193 -87 -37 -34 -65 -89 -73 -141 l-7
-41 44 19 c39 18 45 25 51 62 4 23 14 52 22 65 33 49 116 94 175 94 l27 0 -31
-150 c-29 -147 -30 -150 -56 -150 -14 0 -34 -9 -44 -20 -18 -20 -17 -20 22
-20 l41 0 -28 -135 c-58 -278 -105 -355 -217 -355 -41 0 -100 30 -110 56 -5
12 -12 9 -39 -17 -19 -18 -34 -37 -34 -41 0 -16 84 -48 126 -48 99 0 199 56
269 151 53 72 80 141 109 279 l23 105 86 0 c76 0 89 3 109 23 l22 22 -102 0
c-91 0 -102 2 -102 18 1 9 13 76 29 147 l28 130 79 -1 c101 -1 144 -21 144
-65 0 -45 21 -31 41 27 32 90 44 84 -168 83 -104 -1 -213 -5 -243 -10z"/>
<path d="M3300 1906 c-58 -18 -111 -35 -117 -39 -27 -17 -11 -24 27 -15 82 21
84 10 40 -225 -17 -89 -28 -172 -25 -184 13 -55 68 -68 140 -33 54 26 125 92
125 115 0 13 -12 6 -49 -28 -69 -65 -121 -75 -121 -23 0 24 59 325 80 409 7
26 11 49 9 51 -2 2 -51 -11 -109 -28z"/>
<path d="M3589 1911 c-50 -33 -83 -73 -92 -112 -6 -22 -1 -20 42 23 57 57 89
62 127 21 44 -47 66 -142 72 -305 l4 -148 26 7 c27 6 27 6 186 193 142 167
186 232 186 279 0 58 -16 73 -72 65 l-46 -7 16 -34 c29 -62 -9 -150 -132 -305
-33 -42 -64 -77 -67 -78 -3 0 -9 51 -12 113 -14 264 -106 375 -238 288z"/>
<path d="M4490 1923 c-60 -22 -167 -129 -205 -206 -39 -81 -46 -179 -16 -239
25 -52 80 -88 134 -88 79 0 267 82 267 116 0 9 -3 14 -7 12 -5 -2 -37 -18 -71
-36 -79 -41 -151 -52 -188 -28 -31 21 -54 72 -54 119 0 34 0 34 58 41 101 11
210 76 248 148 8 15 14 49 14 77 0 43 -4 53 -31 75 -36 30 -80 33 -149 9z m80
-49 c8 -8 13 -34 13 -58 0 -62 -32 -109 -96 -140 -56 -28 -137 -45 -137 -29 0
27 33 114 59 156 48 75 129 111 161 71z"/>
<path d="M7072 1923 c-46 -23 -112 -100 -112 -132 0 -25 1 -25 26 10 51 73
125 88 161 32 26 -40 42 -153 43 -306 l0 -138 23 6 c12 4 36 23 54 43 33 38
137 206 169 275 10 20 21 37 25 37 10 0 18 -70 25 -221 7 -131 8 -136 28 -132
13 3 63 62 136 163 139 192 190 281 190 333 l0 37 -56 0 c-53 0 -55 -1 -47
-22 19 -54 6 -110 -51 -222 -31 -61 -67 -124 -80 -140 l-24 -29 -7 79 c-7 77
-35 238 -53 299 -12 42 -49 47 -58 8 -26 -121 -71 -227 -141 -338 l-38 -60 -7
110 c-4 61 -12 133 -18 160 -30 139 -97 193 -188 148z"/>
<path d="M8211 1929 c-83 -25 -185 -122 -229 -217 -38 -82 -42 -181 -10 -241
32 -60 77 -84 149 -78 74 6 143 43 207 111 77 81 106 150 107 253 0 88 -11
114 -67 156 -31 23 -108 31 -157 16z m84 -53 c30 -30 39 -76 33 -179 -14 -250
-237 -376 -271 -153 -4 22 -2 71 3 109 26 180 155 303 235 223z"/>
</g>
</svg>
